<svg viewBox="0 0 20 24">
    <g>
        <path
            d="M5.681 24C5.18893 24.0004 4.71399 23.8193 4.34704 23.4915C3.98008 23.1636 3.74687 22.712 3.692
            22.223L1.89 6H17.89L16.09 22.224C16.0349 22.713 15.8014 23.1645 15.4343 23.4922C15.0671 23.8198
            14.5921 24.0006 14.1 24H5.681ZM12 4H1C0.734784 4 0.48043 3.89464 0.292893 3.70711C0.105357 3.51957
            0 3.26522 0 3C0 2.73478 0.105357 2.48043 0.292893 2.29289C0.48043 2.10536 0.734784 2 1 2H6C6
            1.46957 6.21071 0.960859 6.58579 0.585786C6.96086 0.210714 7.46957 0 8 0L12 0C12.5304 0 13.0391
            0.210714 13.4142 0.585786C13.7893 0.960859 14 1.46957 14 2H19C19.2652 2 19.5196 2.10536 19.7071
            2.29289C19.8946 2.48043 20 2.73478 20 3C20 3.26522 19.8946 3.51957 19.7071 3.70711C19.5196 3.89464
            19.2652 4 19 4H12Z"
        />
    </g>
</svg>
